<?xml version="1.0" standalone="no"?><!DOCTYPE svg PUBLIC "-//W3C//DTD SVG 1.1//EN" "http://www.w3.org/Graphics/SVG/1.1/DTD/svg11.dtd"><svg t="1712984499877" class="icon" viewBox="0 0 1024 1024" version="1.1" xmlns="http://www.w3.org/2000/svg" p-id="4534" width="64" height="64" xmlns:xlink="http://www.w3.org/1999/xlink"><path d="M512 0a512 512 0 1 1 0 1024A512 512 0 0 1 512 0z m0 102.4a409.6 409.6 0 1 0 0 819.2A409.6 409.6 0 0 0 512 102.4z" p-id="4535" fill="#8a8a8a"></path><path d="M580.266667 406.641778l-50.346667 265.386666a373.873778 373.873778 0 0 0-3.242667 20.024889c-0.625778 4.209778-0.967111 8.533333-1.024 12.8a45.511111 45.511111 0 0 0 10.012445 31.971556 36.750222 36.750222 0 0 0 28.785778 10.979555c7.509333-0.227556 14.904889-1.137778 22.186666-2.730666 10.865778-2.161778 21.617778-5.006222 32.028445-8.533334v32.028445c-23.495111 9.784889-47.729778 17.635556-72.476445 23.438222a286.72 286.72 0 0 1-61.838222 7.281778c-16.042667 1.137778-31.857778-4.494222-43.576889-15.530667a64 64 0 0 1-14.791111-45.511111c0.113778-6.428444 0.568889-12.856889 1.479111-19.228444 1.024-7.509333 2.958222-19.171556 5.688889-33.962667l42.325333-211.512889-64.512-9.955555v-27.591112l134.826667-29.809777h34.474667v0.455111zM545.564444 243.825778a54.840889 54.840889 0 1 1 0 109.738666 54.840889 54.840889 0 0 1 0-109.738666z" p-id="4536" fill="#8a8a8a"></path></svg>