<?xml version="1.0" standalone="no"?><!DOCTYPE svg PUBLIC "-//W3C//DTD SVG 1.1//EN" "http://www.w3.org/Graphics/SVG/1.1/DTD/svg11.dtd"><svg t="1712772292180" class="icon" viewBox="0 0 1024 1024" version="1.1" xmlns="http://www.w3.org/2000/svg" p-id="6001" xmlns:xlink="http://www.w3.org/1999/xlink" width="64" height="64"><path d="M439.580444 492.202667a142.222222 142.222222 0 1 1 144.867556 0C689.948444 518.030222 768 598.954667 768 696.888889h-56.888889c0-84.935111-88.007111-156.444444-199.111111-156.444445s-199.111111 71.509333-199.111111 156.444445H256c0-97.934222 78.023111-178.858667 183.580444-204.686222zM512 455.111111a85.333333 85.333333 0 1 0 0-170.666667 85.333333 85.333333 0 0 0 0 170.666667z m-85.333333 506.652445C224.398222 930.986667 64.540444 771.185778 33.792 568.888889h57.656889A412.814222 412.814222 0 0 0 426.666667 904.106667v57.656889zM39.025778 398.222222C79.786667 209.550222 233.984 63.089778 426.666667 33.792v57.656889C265.472 119.466667 136.391111 241.066667 97.422222 398.222222H39.025778zM597.333333 39.025778A469.959111 469.959111 0 0 1 956.529778 398.222222h-58.396445A413.127111 413.127111 0 0 0 597.333333 97.422222V39.025778zM961.763556 568.888889C932.465778 761.571556 786.005333 915.768889 597.333333 956.529778v-58.396445c157.155556-38.968889 278.755556-168.049778 306.773334-329.244444h57.656889zM0 455.111111h113.777778v56.888889H0v-56.888889z m881.777778 0h113.777778v56.888889h-113.777778v-56.888889zM483.555556 995.555556v-113.777778h56.888888v113.777778h-56.888888z m0-881.777778V0h56.888888v113.777778h-56.888888z" fill="#8a8a8a" p-id="6002"></path></svg>