<?xml version="1.0" standalone="no"?><!DOCTYPE svg PUBLIC "-//W3C//DTD SVG 1.1//EN" "http://www.w3.org/Graphics/SVG/1.1/DTD/svg11.dtd"><svg t="1712319025270" class="icon" viewBox="0 0 1024 1024" version="1.1" xmlns="http://www.w3.org/2000/svg" p-id="14149" xmlns:xlink="http://www.w3.org/1999/xlink" width="64" height="64"><path d="M160 160m32 0l256 0q32 0 32 32l0 256q0 32-32 32l-256 0q-32 0-32-32l0-256q0-32 32-32Z" p-id="14150" fill="#8a8a8a"></path><path d="M544 160m32 0l256 0q32 0 32 32l0 256q0 32-32 32l-256 0q-32 0-32-32l0-256q0-32 32-32Z" p-id="14151" fill="#8a8a8a"></path><path d="M160 544m32 0l256 0q32 0 32 32l0 256q0 32-32 32l-256 0q-32 0-32-32l0-256q0-32 32-32Z" p-id="14152" fill="#8a8a8a"></path><path d="M544 544m32 0l256 0q32 0 32 32l0 256q0 32-32 32l-256 0q-32 0-32-32l0-256q0-32 32-32Z" p-id="14153" fill="#8a8a8a"></path></svg>