<?xml version="1.0" standalone="no"?><!DOCTYPE svg PUBLIC "-//W3C//DTD SVG 1.1//EN" "http://www.w3.org/Graphics/SVG/1.1/DTD/svg11.dtd"><svg t="1712319134139" class="icon" viewBox="0 0 1024 1024" version="1.1" xmlns="http://www.w3.org/2000/svg" p-id="17224" xmlns:xlink="http://www.w3.org/1999/xlink" width="64" height="64"><path d="M1024.00902 439.5c-0.1-13.9-8.1-26.5-20.5-32.4l-82.6-39.4 82.7-39.6c12.2-5.8 20.1-18.1 20.4-31.8s-6.9-26.3-18.8-32.8L528.90902 4.3c-10.6-5.7-23.2-5.7-33.8 0L18.80902 263.7C6.90902 270.2-0.29098 282.8 0.00902 296.5c0.4 13.6 8.3 25.9 20.4 31.8l82.7 39.5-82.6 39.4C8.10902 413.1 0.10902 425.6 0.00902 439.5s7.6 26.6 19.9 32.8l81.3 40.7-80.7 38.5C8.20902 557.3 0.30902 569.8 0.00902 583.5s7.2 26.5 19.3 32.8l76.6 40-76.6 40C7.60902 702.4 0.10902 714.7 0.00902 728.1c-0.1 13.5 7.1 25.8 18.8 32.1l476.4 259.5c5.3 2.9 11.1 4.3 16.9 4.3 5.9 0 11.6-1.5 16.9-4.3l476.3-259.5c11.6-6.4 18.9-18.7 18.8-32.1-0.1-13.4-7.5-25.6-19.3-31.8l-76.6-40 76.6-40c12.1-6.3 19.6-19.1 19.3-32.8-0.3-13.7-8.2-26.2-20.5-32L922.80902 513l81.3-40.7c12.3-6.2 20-18.9 19.9-32.8zM512.00902 77.1l397.1 216.3-83.2 39.8c-2.1 0.7-3.9 1.8-5.9 2.8L512.00902 483.3l-311.7-149c-0.5-0.2-1-0.5-1.5-0.7l-84-40.1L512.00902 77.1z m-15.2 478.8c4.8 2.3 10 3.4 15.2 3.4 5.2 0 10.4-1.1 15.2-3.4l309.9-148.2 69 32.9-71.6 35.8c-9.1 0.7-17.5 4.8-23.8 11.9L512.00902 637.8 117.80902 440.7l69-32.9 310 148.1z m415 173.2L512.00902 946.8 112.20902 729.1l61.5-32.1 321.9 168.2c5.1 2.7 10.8 4 16.3 4 5.6 0 11.2-1.3 16.3-4L850.00902 697.1l61.8 32z m-4.2-143.5L512.00902 792.3 116.30902 585.6l63.3-30.2c1-0.5 1.7-1.4 2.6-2l314 157c5 2.5 10.4 3.7 15.8 3.7s10.8-1.2 15.8-3.7L841.00902 553.9l66.6 31.7z" fill="#8a8a8a" p-id="17225"></path></svg>