<?xml version="1.0" standalone="no"?><!DOCTYPE svg PUBLIC "-//W3C//DTD SVG 1.1//EN" "http://www.w3.org/Graphics/SVG/1.1/DTD/svg11.dtd"><svg t="1712318929077" class="icon" viewBox="0 0 1024 1024" version="1.1" xmlns="http://www.w3.org/2000/svg" p-id="13013" xmlns:xlink="http://www.w3.org/1999/xlink" width="64" height="64"><path d="M829.888 473.856l3.968 0.768c24.128 9.28 46.592 22.4 66.56 38.912a16.32 16.32 0 0 1 3.968 18.304 82.816 82.816 0 0 0 63.168 109.376 16.32 16.32 0 0 1 13.952 12.992c4.096 25.472 4.096 51.584-0.32 77.12a16.32 16.32 0 0 1-13.952 12.992 82.816 82.816 0 0 0-63.168 109.44 16.32 16.32 0 0 1-4.032 18.24 239.424 239.424 0 0 1-66.56 38.912 16.32 16.32 0 0 1-17.92-5.632 82.496 82.496 0 0 0-126.72 0 16.96 16.96 0 0 1-18.24 5.632 237.76 237.76 0 0 1-66.56-38.912 16.32 16.32 0 0 1-3.968-18.624c8.064-22.848 5.76-48.128-6.272-69.12-12.16-21.248-33.152-35.84-57.216-39.936a16.96 16.96 0 0 1-13.952-12.992c-2.176-12.8-3.264-25.6-3.328-38.592 0.064-12.928 1.152-25.792 3.328-38.528a16.96 16.96 0 0 1 13.952-12.992c24.064-4.096 45.056-18.752 57.216-39.872 12.032-21.184 14.336-46.528 6.272-69.504a15.616 15.616 0 0 1 4.032-18.304 237.76 237.76 0 0 1 66.496-38.912 16.96 16.96 0 0 1 18.304 5.632 83.136 83.136 0 0 0 126.976 0 16.32 16.32 0 0 1 17.984-5.632zM458.496 808.96a44.8 44.8 0 0 1 0 89.6H84.48a44.8 44.8 0 0 1 0-89.6z m293.568-199.36a83.136 83.136 0 1 0 0 166.272 83.136 83.136 0 0 0 0-166.272zM309.76 464c5.696 5.696 10.432 11.904 14.272 18.56H499.2a44.8 44.8 0 0 1 0 89.6l-175.296 0.064a89.728 89.728 0 0 1-155.072 0L84.48 572.16a44.8 44.8 0 0 1 0-89.6h84.288a89.728 89.728 0 0 1 140.992-18.56z m499.2-326.4c5.696 5.632 10.432 11.904 14.208 18.496l84.352 0.064a44.8 44.8 0 0 1 0 89.6h-84.288a89.728 89.728 0 0 1-155.264 0H84.48a44.8 44.8 0 0 1 0-89.6l583.552-0.064a89.728 89.728 0 0 1 140.928-18.496z" fill="#8a8a8a" p-id="13014"></path></svg>