<?xml version="1.0" standalone="no"?><!DOCTYPE svg PUBLIC "-//W3C//DTD SVG 1.1//EN" "http://www.w3.org/Graphics/SVG/1.1/DTD/svg11.dtd"><svg t="1712320110751" class="icon" viewBox="0 0 1024 1024" version="1.1" xmlns="http://www.w3.org/2000/svg" p-id="1716" xmlns:xlink="http://www.w3.org/1999/xlink" width="64" height="64"><path d="M163.281455 770.823758a429.707636 429.707636 0 0 1-83.781819-254.541576c0-237.226667 193.008485-430.235152 430.266182-430.235152 97.993697 0 192.077576 33.357576 268.350061 94.549334L480.969697 465.857939 163.281455 770.823758z m346.484363 175.693575a429.552485 429.552485 0 0 1-306.113939-128.403394L823.730424 222.797576a424.866909 424.866909 0 0 1 116.239515 293.484606c0 237.226667-192.977455 430.235152-430.204121 430.235151z m359.486061-767.379394l-23.955394-22.403878-21.47297-20.045576-0.99297 0.930909C734.518303 64.418909 624.64 23.986424 509.765818 23.986424 238.312727 23.986424 17.43903 244.829091 17.43903 516.282182c0 107.613091 35.933091 211.99903 101.065697 297.580606l-0.930909 0.868848 19.145697 22.279758 21.410909 24.824242 1.241212-1.210181c92.408242 94.083879 218.08097 147.952485 350.394182 147.952484 271.453091 0 492.264727-220.842667 492.264727-492.295757 0-126.572606-47.631515-244.456727-133.957818-336.058182l1.179152-1.117091z" fill="#8a8a8a" p-id="1717"></path></svg>