<?xml version="1.0" standalone="no"?><!DOCTYPE svg PUBLIC "-//W3C//DTD SVG 1.1//EN" "http://www.w3.org/Graphics/SVG/1.1/DTD/svg11.dtd"><svg t="1712319191784" class="icon" viewBox="0 0 1024 1024" version="1.1" xmlns="http://www.w3.org/2000/svg" p-id="18301" data-spm-anchor-id="a313x.search_index.0.i13.46b53a81A2AyJT" xmlns:xlink="http://www.w3.org/1999/xlink" width="64" height="64"><path d="M711.820481 406.191614a231.626968 231.626968 0 0 1 169.319006 389.687041l133.802189 164.585136a38.382728 38.382728 0 0 1-56.934379 51.330502l-2.635614-2.917088-135.183967-166.299565a231.626968 231.626968 0 1 1-108.392824-436.386026z m0 76.765455a154.861512 154.861512 0 1 0 0 309.723025c22.824929 0 44.831026-4.887401 64.943575-14.201609l7.446249-3.710331 23.004049-12.231296 17.835174-19.063421a153.940327 153.940327 0 0 0 41.453346-98.208606l0.179119-7.420661a154.861512 154.861512 0 0 0-154.861512-154.887101z" fill="#bfbfbf" p-id="18302" data-spm-anchor-id="a313x.search_index.0.i15.46b53a81A2AyJT" class="selected"></path><path d="M388.586736 613.739817v76.765456H179.119396v-76.765456h209.46734z m54.887301-191.197161v76.765455H179.119396v-76.765455h264.329052zM793.243041 231.371083v76.765456H179.119396v-76.765456h614.123645z" fill="#dbdbdb" p-id="18303" data-spm-anchor-id="a313x.search_index.0.i14.46b53a81A2AyJT" class=""></path><path d="M940.069769 0a83.290519 83.290519 0 0 1 83.162576 78.71018l0.102354 4.554751v325.024939a35.695937 35.695937 0 0 1-71.212754 3.428857l-0.153531-3.428857V83.264931a11.898646 11.898646 0 0 0-9.774801-11.693938l-2.123844-0.204708H83.469639a11.898646 11.898646 0 0 0-11.693938 9.774802l-0.204708 2.123844v856.983957c0 5.834175 4.2221 10.695987 9.774801 11.693938l2.123845 0.204708h268.57674a35.695937 35.695937 0 0 1 3.428857 71.212754l-3.428857 0.179119H83.469639a83.290519 83.290519 0 0 1-83.162577-78.71018l-0.102354-4.580339V83.290519a83.290519 83.290519 0 0 1 78.71018-83.162577l4.554751-0.127942h856.60013z" fill="#8a8a8a" p-id="18304" data-spm-anchor-id="a313x.search_index.0.i12.46b53a81A2AyJT" class=""></path></svg>