<?xml version="1.0" standalone="no"?><!DOCTYPE svg PUBLIC "-//W3C//DTD SVG 1.1//EN" "http://www.w3.org/Graphics/SVG/1.1/DTD/svg11.dtd"><svg t="1712319561631" class="icon" viewBox="0 0 1024 1024" version="1.1" xmlns="http://www.w3.org/2000/svg" p-id="21791" xmlns:xlink="http://www.w3.org/1999/xlink" width="64" height="64"><path d="M64 222.08A158.08 158.08 0 0 1 222.08 64h474.368a158.08 158.08 0 0 1 158.144 158.08v173.184a52.736 52.736 0 0 1-105.408 0V222.144a52.736 52.736 0 0 0-52.736-52.736H222.144a52.736 52.736 0 0 0-52.736 52.736v632.448c0 29.056 23.616 52.672 52.736 52.672h263.488a52.736 52.736 0 1 1 0 105.408H222.144A158.08 158.08 0 0 1 64 854.592V222.08z m532.352 499.392c4.736-8.832 11.52-19.648 20.736-30.336 20.672-24 53.12-47.36 105.728-47.36s85.12 23.36 105.728 47.36c9.408 10.88 16.256 21.888 20.992 30.72a166.528 166.528 0 0 1-21.056 29.76c-20.736 23.296-53.12 45.824-104.832 44.992-52.8-0.896-85.888-24-106.816-47.04a166.4 166.4 0 0 1-20.48-28.096z m310.976 0.96c50.176-16 50.176-16.128 50.176-16.128l-0.064-0.128-0.128-0.32-0.192-0.64a145.28 145.28 0 0 0-2.944-7.872 274.368 274.368 0 0 0-45.76-75.008c-35.968-41.728-95.68-83.968-185.6-83.968-89.856 0-149.632 42.24-185.6 83.968a274.432 274.432 0 0 0-45.76 75.008 180.288 180.288 0 0 0-2.944 7.872l-0.192 0.64-0.064 0.32-0.064 0.128 50.176 16.128-50.24-16a52.672 52.672 0 0 0 0.512 33.472l49.728-17.472-49.728 17.472v0.064l0.064 0.128 0.128 0.256 0.192 0.64a132.864 132.864 0 0 0 3.072 7.68 271.68 271.68 0 0 0 46.72 71.808c36.096 39.744 95.296 80.064 183.168 81.472 88.96 1.472 148.864-39.488 185.152-80.192a272.192 272.192 0 0 0 46.656-73.536 157.312 157.312 0 0 0 3.008-7.68l0.256-0.704 0.064-0.32 0.064-0.128-49.92-16.96z m0 0l49.92 16.96a52.992 52.992 0 0 0 0.256-33.088l-50.176 16.128z m-184.512-57.728c29.12 0 52.736 23.616 52.736 52.672v2.816a52.736 52.736 0 0 1-105.408 0v-2.816c0-29.056 23.552-52.672 52.672-52.672z" fill="#8a8a8a" p-id="21792"></path></svg>