<?xml version="1.0" standalone="no"?><!DOCTYPE svg PUBLIC "-//W3C//DTD SVG 1.1//EN" "http://www.w3.org/Graphics/SVG/1.1/DTD/svg11.dtd"><svg t="1712319041816" class="icon" viewBox="0 0 1024 1024" version="1.1" xmlns="http://www.w3.org/2000/svg" p-id="15313" xmlns:xlink="http://www.w3.org/1999/xlink" width="64" height="64"><path d="M307.2 546.133333a68.266667 68.266667 0 0 1 68.266667 68.266667v204.8a68.266667 68.266667 0 0 1-68.266667 68.266667H102.4a68.266667 68.266667 0 0 1-68.266667-68.266667v-204.8a68.266667 68.266667 0 0 1 68.266667-68.266667h204.8zM307.2 102.4a68.266667 68.266667 0 0 1 68.266667 68.266667v204.8a68.266667 68.266667 0 0 1-68.266667 68.266666H102.4a68.266667 68.266667 0 0 1-68.266667-68.266666V170.666667a68.266667 68.266667 0 0 1 68.266667-68.266667h204.8z" fill="#8a8a8a" p-id="15314" data-spm-anchor-id="a313x.search_index.0.i9.46b53a81A2AyJT" class="selected"></path><path d="M802.133333 750.933333a51.2 51.2 0 0 1 0 102.4h-307.2a51.2 51.2 0 0 1 0-102.4h307.2z m136.533334-170.666666a51.2 51.2 0 0 1 0 102.4h-443.733334a51.2 51.2 0 0 1 0-102.4h443.733334z m-238.933334-273.066667a51.2 51.2 0 0 1 0 102.4h-204.8a51.2 51.2 0 0 1 0-102.4h204.8z m238.933334-170.666667a51.2 51.2 0 0 1 0 102.4h-443.733334a51.2 51.2 0 0 1 0-102.4h443.733334z" fill="#DFDFDF" p-id="15315"></path></svg>