<?xml version="1.0" standalone="no"?><!DOCTYPE svg PUBLIC "-//W3C//DTD SVG 1.1//EN" "http://www.w3.org/Graphics/SVG/1.1/DTD/svg11.dtd"><svg t="1712319995773" class="icon" viewBox="0 0 1024 1024" version="1.1" xmlns="http://www.w3.org/2000/svg" p-id="987" xmlns:xlink="http://www.w3.org/1999/xlink" width="64" height="64"><path d="M500.864 83.392c239.68 0 434.656 194.976 434.656 434.624 0 239.648-195.008 434.656-434.656 434.656S66.24 757.664 66.24 518.016 261.216 83.392 500.864 83.392m0 933.28c274.944 0 498.656-223.712 498.656-498.656S775.84 19.392 500.864 19.392C225.92 19.392 2.24 243.072 2.24 518.016S225.92 1016.672 500.864 1016.672" fill="#8a8a8a" p-id="988"></path><path d="M436.864 412.512l189.024 105.504-189.024 105.504v-211.008z m-32 297.504a31.04 31.04 0 0 0 15.36-4.48l0.224 0.416 286.72-160-0.256-0.416a31.584 31.584 0 0 0 16.64-27.52 31.552 31.552 0 0 0-16.64-27.52l0.224-0.416-286.688-160-0.224 0.416a30.72 30.72 0 0 0-15.36-4.48 32 32 0 0 0-32 32v320a32 32 0 0 0 32 32z" fill="#8a8a8a" p-id="989"></path></svg>