<?xml version="1.0" standalone="no"?><!DOCTYPE svg PUBLIC "-//W3C//DTD SVG 1.1//EN" "http://www.w3.org/Graphics/SVG/1.1/DTD/svg11.dtd"><svg t="1712319614925" class="icon" viewBox="0 0 1024 1024" version="1.1" xmlns="http://www.w3.org/2000/svg" p-id="22903" xmlns:xlink="http://www.w3.org/1999/xlink" width="64" height="64"><path d="M187.296 128.448C154.336 128.448 128 155.328 128 187.904v648.64C128 869.568 154.784 896 187.296 896H834.56c32.96 0 59.296-26.88 59.296-59.456v-497.6c0-18.048-7.04-35.232-19.776-47.552l-139.2-137.856A87.36 87.36 0 0 0 673.408 128H187.296v0.448z m36.448 160.736c0-33.024 26.784-59.456 59.264-59.456h288.544c32.928 0 59.264 26.88 59.264 59.456a59.392 59.392 0 0 1-59.264 59.424H283.008c-32.928 0-59.264-26.848-59.264-59.424z m574.4 452.672a59.392 59.392 0 0 1-59.296 59.456H283.008c-32.928 0-59.264-26.88-59.264-59.456V563.52c0-33.024 26.784-59.456 59.264-59.456H738.88c32.96 0 59.296 26.88 59.296 59.456v178.336z" fill="#8a8a8a" p-id="22904"></path></svg>