<svg t="1716051515132" class="icon" viewBox="0 0 1024 1024" version="1.1" xmlns="http://www.w3.org/2000/svg" p-id="2782" width="64" height="64"><path d="M211.114667 676.48a116.352 116.352 0 1 1 0 232.682667 116.352 116.352 0 0 1 0-232.704z m0 72.192a44.16 44.16 0 1 0 0 88.298667 44.16 44.16 0 0 0 0-88.298667z m682.048 8.064a36.096 36.096 0 0 1 5.845333 71.744l-5.845333 0.469333H451.84a36.117333 36.117333 0 0 1-5.845333-71.722666l5.845333-0.490667h441.322667zM211.136 395.669333a116.330667 116.330667 0 1 1 0 232.661334 116.330667 116.330667 0 0 1 0-232.64z m0 72.213334a44.117333 44.117333 0 1 0 0 88.234666 44.117333 44.117333 0 0 0 0-88.234666z m682.026667 8.021333a36.096 36.096 0 0 1 5.845333 71.722667l-5.845333 0.469333H451.84a36.096 36.096 0 0 1-5.845333-71.722667l5.845333-0.469333h441.322667zM211.136 114.837333a116.352 116.352 0 1 1 0 232.704 116.352 116.352 0 0 1 0-232.704z m0 72.213334a44.138667 44.138667 0 1 0 0 88.277333 44.138667 44.138667 0 0 0 0-88.277333z m682.026667 8a36.096 36.096 0 0 1 5.845333 71.722666l-5.845333 0.490667H451.84a36.117333 36.117333 0 0 1-5.845333-71.744l5.845333-0.469333h441.322667z" p-id="2783" fill="#8a8a8a"></path></svg>