<?xml version="1.0" standalone="no"?><!DOCTYPE svg PUBLIC "-//W3C//DTD SVG 1.1//EN" "http://www.w3.org/Graphics/SVG/1.1/DTD/svg11.dtd"><svg t="1712318617097" class="icon" viewBox="0 0 1024 1024" version="1.1" xmlns="http://www.w3.org/2000/svg" p-id="7505" xmlns:xlink="http://www.w3.org/1999/xlink" width="64" height="64"><path d="M617.386667 896a42.666667 42.666667 0 0 1-42.666667-42.666667v-184.746666a59.306667 59.306667 0 0 0-59.306667-59.306667H209.92a59.306667 59.306667 0 0 0-59.306667 59.306667V853.333333a42.666667 42.666667 0 0 1-85.333333 0v-184.746666a144.64 144.64 0 0 1 144.64-144.64h305.493333a144.64 144.64 0 0 1 144.64 144.64V853.333333a42.666667 42.666667 0 0 1-42.666666 42.666667zM922.026667 896a42.666667 42.666667 0 0 1-42.666667-42.666667v-184.746666a59.306667 59.306667 0 0 0-59.306667-59.306667h-128a42.666667 42.666667 0 1 1 0-85.333333h128a144.64 144.64 0 0 1 144.64 144.64V853.333333a42.666667 42.666667 0 0 1-42.666666 42.666667zM362.666667 491.093333a195.84 195.84 0 1 1 195.413333-195.413333 195.84 195.84 0 0 1-195.413333 195.413333z m0-305.92a110.506667 110.506667 0 1 0 110.08 110.506667A110.506667 110.506667 0 0 0 362.666667 185.173333zM659.2 491.093333a42.666667 42.666667 0 0 1 0-85.333333 110.506667 110.506667 0 0 0 0-220.586667 42.666667 42.666667 0 0 1 0-85.333333 195.84 195.84 0 0 1 0 391.253333z" fill="#8a8a8a" p-id="7506"></path></svg>