<?xml version="1.0" standalone="no"?><!DOCTYPE svg PUBLIC "-//W3C//DTD SVG 1.1//EN" "http://www.w3.org/Graphics/SVG/1.1/DTD/svg11.dtd"><svg t="1712838656508" class="icon" viewBox="0 0 1024 1024" version="1.1" xmlns="http://www.w3.org/2000/svg" p-id="4286" xmlns:xlink="http://www.w3.org/1999/xlink" width="64" height="64"><path d="M1023.024762 861.135238c0-1.950476 0.975238-2.925714 0.975238-3.900952v-619.276191c0-12.678095-5.851429-23.405714-14.628571-31.207619-39.984762-60.464762-157.013333-88.746667-263.314286-88.746666-100.449524 0-181.394286 27.306667-232.106667 75.093333-52.662857-46.811429-141.409524-75.093333-246.735238-75.093333-123.855238 0-217.478095 35.108571-252.586667 88.746666-8.777143 7.801905-14.628571 18.529524-14.628571 31.207619v609.52381c0 0.975238 0 1.950476 0.975238 2.925714-3.900952 22.430476 11.702857 43.885714 34.133333 47.786667 22.430476 3.900952 43.885714-11.702857 47.786667-34.133334 2.925714-14.628571 63.390476-52.662857 185.295238-52.662857 115.078095 0 189.19619 39.009524 208.700953 75.093334 7.801905 13.653333 21.455238 21.455238 36.083809 21.455238h3.900952c14.628571 0 29.257143-7.801905 36.08381-21.455238 12.678095-22.430476 55.588571-75.093333 193.097143-75.093334 121.904762 0 189.19619 38.034286 195.047619 53.638095 0 0.975238 0.975238 2.925714 1.950476 3.900953l2.925714 8.777143c0.975238 1.950476 2.925714 3.900952 3.900953 5.851428l5.851428 5.851429c1.950476 1.950476 3.900952 2.925714 6.826667 3.900952 1.950476 0.975238 4.87619 1.950476 6.826667 2.925715 2.925714 0.975238 5.851429 0.975238 8.777143 1.950476 1.950476 0 2.925714 0.975238 4.87619 0.975238 0.975238 0 1.950476-0.975238 2.925714-0.975238h3.900953c1.950476 0 2.925714-0.975238 4.87619-1.950476 2.925714-0.975238 4.87619-1.950476 7.801905-2.925715 2.925714-0.975238 4.87619-2.925714 6.826667-4.87619 1.950476-1.950476 3.900952-2.925714 4.87619-4.876191 1.950476-1.950476 2.925714-4.87619 4.876191-6.826666 0.975238-1.950476 1.950476-3.900952 2.925714-6.826667 0-2.925714 0.975238-5.851429 0.975238-8.777143z m-754.834286-134.582857c-74.118095 0-137.508571 12.678095-184.32 34.133333v-508.099047c4.87619-15.60381 65.340952-51.687619 184.32-51.687619 107.27619 0 178.468571 34.133333 203.824762 67.291428v504.198095c-52.662857-29.257143-123.855238-45.83619-203.824762-45.83619z m477.866667 0c-75.093333 0-138.48381 15.60381-187.245714 42.910476v-502.247619c17.554286-25.35619 65.340952-66.31619 187.245714-66.31619 12.678095 0 24.380952 0.975238 36.083809 0.975238v180.419047c0 23.405714 18.529524 41.935238 41.935238 41.935238s41.935238-18.529524 41.935239-41.935238V215.527619c44.860952 11.702857 70.217143 28.281905 74.118095 38.034286v510.049524c-53.638095-25.35619-125.805714-37.059048-194.072381-37.059048z" fill="#8a8a8a" p-id="4287"></path></svg>